<svg xmlns="http://www.w3.org/2000/svg" viewBox="0 0 2800 1000"><defs><style>.cls-1{fill:#0092d6;}.cls-2,.cls-3{fill:#fff;}.cls-3{stroke:#fff;stroke-miterlimit:10;stroke-width:4px;}</style></defs><g id="BG"><rect class="cls-1" width="2800" height="1000"/></g><g id="font_copy" data-name="font copy"><path class="cls-2" d="M268.14,445.39v11.26h75.45v34.06H268.14v66.81H225.69V445.65c0-47.16,31.18-74.67,84.1-74.67,21,0,40.09,4.46,53.71,12.84l-13.1,33.53c-11.26-7.33-24.89-10.21-37.72-10.21C283.33,407.14,268.14,420,268.14,445.39Z"/><path class="cls-2" d="M467.78,414.47V452.2c-3.4-.26-6-.53-9.17-.53-22.53,0-37.46,12.32-37.46,39.3v66.55H380.28V416.57h39v18.6C429.27,421.55,446,414.47,467.78,414.47Z"/><path class="cls-2" d="M597.21,513.24,619,536.82c-13.1,14.94-32.75,22.8-58.17,22.8-48.73,0-80.43-30.66-80.43-72.58,0-42.18,32-72.57,75.46-72.57,39.82,0,72.57,26.2,72.83,71.26L524.38,505.91c6,13.88,19.12,21,37.46,21C576.78,526.87,587.52,522.41,597.21,513.24Zm-76.76-30.39,68.64-13.36c-3.93-14.41-16.24-24.1-33.27-24.1C535.38,445.39,521.23,459,520.45,482.85Z"/><path class="cls-2" d="M762.53,513.24l21.75,23.58c-13.1,14.94-32.75,22.8-58.16,22.8-48.74,0-80.44-30.66-80.44-72.58,0-42.18,32-72.57,75.46-72.57,39.82,0,72.57,26.2,72.83,71.26L689.7,505.91c6,13.88,19.12,21,37.46,21C742.1,526.87,752.84,522.41,762.53,513.24Zm-76.76-30.39,68.64-13.36c-3.93-14.41-16.24-24.1-33.27-24.1C700.7,445.39,686.55,459,685.77,482.85Z"/><path class="cls-2" d="M824.37,374.12h83.31c60,0,101.13,36.16,101.13,91.7s-41.13,91.7-101.13,91.7H824.37Zm81.21,148.56c36.42,0,60.26-21.75,60.26-56.86S942,409,905.58,409H866.81V522.68Z"/><path class="cls-2" d="M1027.41,487c0-42.44,32.75-72.57,77.55-72.57s77.29,30.13,77.29,72.57-32.49,72.58-77.29,72.58S1027.41,529.49,1027.41,487Zm113.45,0c0-24.36-15.46-39-35.9-39s-36.15,14.67-36.15,39,15.72,39,36.15,39S1140.86,511.41,1140.86,487Z"/><path class="cls-2" d="M1199,487c0-42.44,32.75-72.57,78.6-72.57,29.61,0,52.92,12.84,63.14,35.9l-31.7,17c-7.6-13.36-18.86-19.38-31.7-19.38-20.7,0-36.94,14.41-36.94,39s16.24,39,36.94,39c12.84,0,24.1-5.76,31.7-19.39l31.7,17.3c-10.22,22.53-33.53,35.63-63.14,35.63C1231.77,559.62,1199,529.49,1199,487Z"/></g><g id="Layer_6_copy" data-name="Layer 6 copy"><path class="cls-2" d="M1656.57,423.73c-16.57,0-62.75-9.61-78.69-33.4-6.26-9.33-7.25-19.9-2.87-30.56,3.63-8.83,10.33-14,20.49-15.81,8-1.43,17.35-.77,29.21.06,36.85,2.6,92.54,6.52,167.13-50,70.11-53.14,152.2-76.92,202.46-76.92a7.5,7.5,0,0,1,0,15c-47.75,0-126.07,22.84-193.4,73.87-79.08,59.94-140.53,55.61-177.25,53-28.64-2-32.12.05-34.76,6.48-2.49,6.07-2,11.31,1.44,16.5,11.84,17.65,51.79,26.76,66.24,26.76a7.5,7.5,0,1,1,0,15Z"/><path class="cls-2" d="M1614,513.82a110.92,110.92,0,0,1-41.16-8.17C1554.4,498.14,1541,487,1536,475.11c-5-12.07-1-23.76,11-32.07,12.5-8.63,32.51-13.12,53.68-17.88,17.92-4,36.44-8.19,52-15,55.55-24.33,99.2-59.11,99.64-59.45a7.49,7.49,0,1,1,9.38,11.69c-1.83,1.48-45.56,36.34-103,61.5-16.91,7.41-36.15,11.73-54.76,15.91-19.72,4.44-38.34,8.62-48.45,15.6-7.94,5.47-7.22,10.33-5.71,13.95,6.54,15.7,44,34.61,77.83,28.27a7.5,7.5,0,1,1,2.76,14.74A89.14,89.14,0,0,1,1614,513.82Z"/><path class="cls-2" d="M1596.81,588.16c-21.92,0-37.91-11.06-40.93-28.47-3-17.14,8.23-39.14,40-49.65,40.62-13.45,83.15-37.87,119.77-68.77,33.81-28.52,53.46-54.83,57.94-68.26a7.5,7.5,0,0,1,14.23,4.75c-6.37,19.1-30.32,47.83-62.49,75-38,32.1-82.35,57.51-124.73,71.54-16.21,5.37-32.48,17.94-29.9,32.85,1.75,10.08,12.46,16.37,27.36,16,20.68-.49,60.85-18.22,100-44.12,45.48-30.12,82.94-66.45,102.75-99.67a7.5,7.5,0,0,1,12.89,7.68c-12.3,20.62-42.6,61.62-107.36,104.49-41.93,27.76-84.28,46.06-107.9,46.62Z"/><path class="cls-2" d="M1864.12,682.13a7.49,7.49,0,0,1-5.8-12.24c95.09-116.52,83.67-156.63,80.42-163.48-1.72-3.63-4-4.93-5.5-4.93-4.87,0-15.91,11.22-25.64,21.11-12.53,12.73-28.13,28.57-47.35,40.59a7.5,7.5,0,1,1-8-12.72c17.72-11.08,32.63-26.22,44.61-38.39,14.62-14.85,25.18-25.59,36.33-25.59,7.92,0,15,5,19,13.5,4.52,9.53,7.18,27.76-5.88,60.51s-38.74,72.65-76.47,118.88A7.48,7.48,0,0,1,1864.12,682.13Z"/><path class="cls-2" d="M2124.47,682.13a7.49,7.49,0,0,1-5.82-2.76c-37.73-46.23-63.46-86.23-76.47-118.88s-10.4-51-5.88-60.51c4-8.45,11.13-13.5,19-13.5,11.15,0,21.71,10.74,36.34,25.59,12,12.17,26.88,27.31,44.6,38.39a7.5,7.5,0,1,1-7.95,12.72c-19.22-12-34.81-27.86-47.34-40.59-9.74-9.89-20.78-21.11-25.65-21.11-1.53,0-3.77,1.3-5.5,4.93-3.25,6.85-14.67,47,80.43,163.48a7.5,7.5,0,0,1-5.81,12.24Z"/><path class="cls-2" d="M1994.3,808.38c-26.1,0-103.13-15.51-120.36-35.85-4.28-5-4.57-9.71-4.07-12.74,10.89-65.32,39.25-100.83,61.13-119.12,26.11-21.82,52.07-27.64,63.3-27.64a7.5,7.5,0,0,1,0,15c-20.33,0-45.64,17.43-53.68,24.15-28.52,23.84-47.84,61.78-55.9,109.74,1.11,2.47,11,10.77,43.88,20.06,23.4,6.61,51,11.4,65.7,11.4a7.5,7.5,0,0,1,0,15Z"/><path class="cls-2" d="M1994.3,966.27c-27.28,0-67.51-11.75-98.61-44.73-14.87-15.77-26.12-34.89-33.45-56.85-8.32-24.91-11.6-53.59-9.74-85.25,1.3-22.11,18-24.9,23.54-25.81a7.5,7.5,0,1,1,2.46,14.79c-7.21,1.21-10.51,3.21-11,11.9-3.29,55.86,9.87,99.91,39.12,130.93,27.86,29.54,64.65,40,87.7,40a7.5,7.5,0,0,1,0,15Z"/><path class="cls-2" d="M1994.11,463.13a22.28,22.28,0,0,1-9-1.81,3,3,0,0,1,2.68-5.36,17,17,0,0,0,6.46,1.17,3,3,0,0,1,.11,6Z"/><path class="cls-2" d="M2332,423.73a7.5,7.5,0,0,1,0-15c14.44,0,54.39-9.11,66.23-26.76,3.48-5.19,3.94-10.43,1.44-16.5-2.64-6.43-6.12-8.5-34.76-6.48-36.72,2.58-98.17,6.91-177.25-53-67.33-51-145.65-73.87-193.39-73.87a7.5,7.5,0,0,1,0-15c50.25,0,132.35,23.78,202.45,76.92,74.59,56.53,130.29,52.61,167.14,50,11.85-.83,21.21-1.49,29.2-.06,10.16,1.81,16.86,7,20.49,15.81,4.38,10.66,3.39,21.23-2.86,30.56C2394.77,414.12,2348.59,423.73,2332,423.73Z"/><path class="cls-2" d="M2374.58,513.82a89.17,89.17,0,0,1-16.45-1.47,7.5,7.5,0,1,1,2.77-14.74,75.76,75.76,0,0,0,13.91,1.26c29.53,0,58.27-16,63.92-29.53,1.5-3.62,2.22-8.48-5.72-13.95-10.11-7-28.73-11.16-48.45-15.6-18.61-4.18-37.85-8.5-54.76-15.91-57.44-25.16-101.17-60-103-61.5a7.5,7.5,0,1,1,9.39-11.69c.43.34,44.08,35.12,99.63,59.45,15.59,6.83,34.11,11,52,15,21.18,4.76,41.18,9.25,53.68,17.88,12,8.31,16.07,20,11,32.07-5,11.89-18.38,23-36.84,30.54A110.87,110.87,0,0,1,2374.58,513.82Z"/><path class="cls-2" d="M2391.78,588.16l-1.56,0c-23.63-.56-66-18.86-107.91-46.62C2217.56,498.65,2187.25,457.65,2175,437a7.5,7.5,0,0,1,12.89-7.68c19.81,33.22,57.27,69.55,102.75,99.67,39.13,25.9,79.31,43.63,100,44.12,14.86.38,25.61-5.93,27.36-16,2.58-14.91-13.68-27.48-29.89-32.85-42.39-14-86.68-39.44-124.73-71.54-32.18-27.15-56.13-55.88-62.5-75A7.5,7.5,0,0,1,2215,373c4.48,13.43,24.13,39.74,57.94,68.26,36.62,30.9,79.16,55.32,119.77,68.77,31.73,10.51,42.93,32.51,40,49.65C2429.69,577.1,2413.7,588.15,2391.78,588.16Z"/><path class="cls-2" d="M1994.3,1080.6c-25.94,0-65.59-1.31-110.26-12.66-46.37-11.79-90.57-32-135.14-61.7-13.12-8.75-26.4-18.45-39.47-28.83-27.62-21.94-49.24-52.87-64.26-91.92-12.81-33.3-20.83-72.4-23.83-116.22-5.62-82.06,7.66-162.39,20.73-206.26a7.5,7.5,0,0,1,14.38,4.29c-12.72,42.66-25.63,120.89-20.14,201,4.36,63.64,22.2,149.55,82.45,197.41,12.75,10.12,25.69,19.58,38.47,28.1,43.12,28.78,85.81,48.28,130.51,59.64,42.56,10.82,79.3,12.2,106.56,12.2s64-1.38,106.55-12.2c44.7-11.36,87.39-30.86,130.52-59.64,12.77-8.52,25.71-18,38.46-28.1,60.25-47.86,78.1-133.77,82.46-197.41,5.48-80.06-7.43-158.29-20.15-201a7.5,7.5,0,0,1,14.38-4.29c13.08,43.87,26.35,124.2,20.73,206.26-4.57,66.66-23.56,156.88-88.09,208.14-13.07,10.38-26.35,20.08-39.47,28.83-44.57,29.73-88.77,49.91-135.14,61.7C2059.88,1079.29,2020.23,1080.6,1994.3,1080.6Z"/><path class="cls-2" d="M1994.3,808.38a7.5,7.5,0,0,1,0-15c14.66,0,42.29-4.79,65.69-11.4,32.86-9.29,42.77-17.59,43.88-20.06-8.06-48-27.38-85.9-55.9-109.74-8-6.72-33.35-24.15-53.67-24.15a7.5,7.5,0,0,1,0-15c11.22,0,37.18,5.82,63.29,27.64,21.88,18.29,50.24,53.8,61.13,119.12.51,3,.21,7.69-4.06,12.74C2097.43,792.87,2020.39,808.38,1994.3,808.38Zm109.62-46.12h0Z"/><path class="cls-2" d="M1994.3,966.27a7.5,7.5,0,1,1,0-15c23,0,59.84-10.48,87.69-40,29.25-31,42.41-75.07,39.13-130.93-.52-8.69-3.82-10.69-11-11.9a7.5,7.5,0,1,1,2.47-14.79c5.49.91,22.23,3.7,23.53,25.81,1.86,31.66-1.41,60.34-9.73,85.25-7.34,22-18.59,41.08-33.46,56.85C2061.81,954.52,2021.58,966.27,1994.3,966.27Z"/><path class="cls-2" d="M1994.49,463.13h-.25a3,3,0,0,1-2.94-3.05,3,3,0,0,1,3-2.94h0a17.17,17.17,0,0,0,6.46-1.17,3,3,0,0,1,2.68,5.36A22.24,22.24,0,0,1,1994.49,463.13Z"/><path class="cls-2" d="M1996.65,438.07h-4.71c-29.29,0-41.31-26.23-41.81-27.34a4.5,4.5,0,0,1,4.11-6.34h80.11a4.5,4.5,0,0,1,4.11,6.34C2038,411.84,2025.94,438.07,1996.65,438.07Zm-34.43-24.68c4.81,6.51,14.33,15.68,29.72,15.68h4.71c15.39,0,24.9-9.16,29.72-15.68Z"/><path class="cls-2" d="M1863.35,266.73a7.5,7.5,0,0,1-6.92-4.6c-4.44-10.58-40.85-110-40.85-120.8,0-4,1.58-8.28,21-20.36a433.55,433.55,0,0,1,44.19-23.55c25.59-11.92,74.36-31.92,113.52-31.92s87.93,20,113.52,31.92A434.39,434.39,0,0,1,2152,121c19.44,12.08,21,16.37,21,20.36,0,10.78-36.42,110.22-40.86,120.8a7.5,7.5,0,1,1-13.83-5.8c7.54-18,35.52-97.24,39.3-113.2C2144.29,130.89,2053.8,80.5,1994.3,80.5s-150,50.39-163.33,62.63c3.78,16,31.75,95.22,39.29,113.2a7.49,7.49,0,0,1-6.91,10.4Zm295.52-122.29Zm-329.15,0Z"/><rect class="cls-2" x="1978.62" y="105.07" width="31.76" height="91" rx="9" transform="translate(1843.93 2145.07) rotate(-90)"/><rect class="cls-2" x="1978.62" y="105.5" width="31.76" height="91" rx="9"/><path class="cls-3" d="M1934.6,307.84c-5.2,0-9.42,14.77-9.42,33s4.22,33,9.42,33,9.43-14.77,9.43-33S1939.81,307.84,1934.6,307.84Z"/><path class="cls-2" d="M2054,307.84c-5.21,0-9.43,14.77-9.43,33s4.22,33,9.43,33,9.42-14.77,9.42-33S2059.19,307.84,2054,307.84Z"/><path class="cls-2" d="M2054,375.82c-7.5,0-11.43-17.6-11.43-35s3.93-35,11.43-35,11.42,17.6,11.42,35S2061.49,375.82,2054,375.82Zm0-66c-2.52,0-7.43,10.94-7.43,31s4.91,31,7.43,31,7.42-10.94,7.42-31S2056.51,309.84,2054,309.84Z"/></g></svg>